<svg width="32" height="32" viewBox="0 0 32 32" fill="none" xmlns="http://www.w3.org/2000/svg">
<path d="M23.3125 9.5H8.6875C7.73828 9.5 7 10.2734 7 11.1875V21.3125C7 22.2617 7.73828 23 8.6875 23H23.3125C24.2266 23 25 22.2617 25 21.3125V11.1875C25 10.2734 24.2266 9.5 23.3125 9.5ZM23.3125 11.1875V12.6289C22.5039 13.2969 21.2383 14.2812 18.5664 16.3906C17.9688 16.8477 16.8086 17.9727 16 17.9375C15.1562 17.9727 13.9961 16.8477 13.3984 16.3906C10.7266 14.2812 9.46094 13.2969 8.6875 12.6289V11.1875H23.3125ZM8.6875 21.3125V14.8086C9.46094 15.4414 10.6211 16.3555 12.3438 17.7266C13.1172 18.3242 14.4883 19.6602 16 19.625C17.4766 19.6602 18.8125 18.3242 19.6211 17.7266C21.3438 16.3555 22.5039 15.4414 23.3125 14.8086V21.3125H8.6875Z" fill="white"/>
</svg>
