<svg width="32" height="32" viewBox="0 0 32 32" fill="none" xmlns="http://www.w3.org/2000/svg">
<path d="M16 12.207C13.75 12.207 11.957 14.0352 11.957 16.25C11.957 18.5 13.75 20.293 16 20.293C18.2148 20.293 20.043 18.5 20.043 16.25C20.043 14.0352 18.2148 12.207 16 12.207ZM16 18.8867C14.5586 18.8867 13.3633 17.7266 13.3633 16.25C13.3633 14.8086 14.5234 13.6484 16 13.6484C17.4414 13.6484 18.6016 14.8086 18.6016 16.25C18.6016 17.7266 17.4414 18.8867 16 18.8867ZM21.1328 12.0664C21.1328 11.5391 20.7109 11.1172 20.1836 11.1172C19.6562 11.1172 19.2344 11.5391 19.2344 12.0664C19.2344 12.5938 19.6562 13.0156 20.1836 13.0156C20.7109 13.0156 21.1328 12.5938 21.1328 12.0664ZM23.8047 13.0156C23.7344 11.75 23.4531 10.625 22.5391 9.71094C21.625 8.79688 20.5 8.51562 19.2344 8.44531C17.9336 8.375 14.0312 8.375 12.7305 8.44531C11.4648 8.51562 10.375 8.79688 9.42578 9.71094C8.51172 10.625 8.23047 11.75 8.16016 13.0156C8.08984 14.3164 8.08984 18.2188 8.16016 19.5195C8.23047 20.7852 8.51172 21.875 9.42578 22.8242C10.375 23.7383 11.4648 24.0195 12.7305 24.0898C14.0312 24.1602 17.9336 24.1602 19.2344 24.0898C20.5 24.0195 21.625 23.7383 22.5391 22.8242C23.4531 21.875 23.7344 20.7852 23.8047 19.5195C23.875 18.2188 23.875 14.3164 23.8047 13.0156ZM22.1172 20.8906C21.8711 21.5938 21.3086 22.1211 20.6406 22.4023C19.5859 22.8242 17.125 22.7188 16 22.7188C14.8398 22.7188 12.3789 22.8242 11.3594 22.4023C10.6562 22.1211 10.1289 21.5938 9.84766 20.8906C9.42578 19.8711 9.53125 17.4102 9.53125 16.25C9.53125 15.125 9.42578 12.6641 9.84766 11.6094C10.1289 10.9414 10.6562 10.4141 11.3594 10.1328C12.3789 9.71094 14.8398 9.81641 16 9.81641C17.125 9.81641 19.5859 9.71094 20.6406 10.1328C21.3086 10.3789 21.8359 10.9414 22.1172 11.6094C22.5391 12.6641 22.4336 15.125 22.4336 16.25C22.4336 17.4102 22.5391 19.8711 22.1172 20.8906Z" fill="white"/>
</svg>
