<svg width="32" height="32" viewBox="0 0 32 32" fill="none" xmlns="http://www.w3.org/2000/svg">
<path d="M11.5262 25.6451L11.5599 25.6339L11.5924 25.6195C11.9912 25.4431 12.2978 25.3051 12.5384 25.1968C12.8669 25.0489 13.0725 24.9563 13.2224 24.8968C13.267 24.8792 13.2979 24.8681 13.3182 24.8613C19.0691 26.4098 25.4688 22.725 25.4688 16.0039C25.4688 10.7141 21.3116 6.78125 16 6.78125C10.6884 6.78125 6.53125 10.7141 6.53125 16.0039C6.53125 18.7237 7.62235 21.1321 9.48926 22.7906C9.49147 22.8054 9.49405 22.8256 9.49665 22.8525C9.50976 22.988 9.5149 23.1594 9.52291 23.4266C9.52953 23.6475 9.53812 23.934 9.5548 24.3197C9.56516 25.1597 10.2638 25.7188 11.0078 25.7188C11.0109 25.7188 11.0143 25.7188 11.0181 25.7188C11.0932 25.719 11.3026 25.7196 11.5262 25.6451ZM18.0387 17.7113L18.0254 17.7323L18.0135 17.7541C17.939 17.8907 17.7753 17.9961 17.582 17.9961C17.4638 17.9961 17.3679 17.9669 17.2143 17.858L15.2126 16.374C14.9612 16.154 14.6574 16.0977 14.418 16.0977C14.1368 16.0977 13.889 16.1935 13.6855 16.3291L13.6669 16.3415L13.6491 16.355L12.38 17.3149L13.9613 14.8238L13.9746 14.8028L13.9865 14.781C14.061 14.6445 14.2247 14.5391 14.418 14.5391C14.5658 14.5391 14.6754 14.5873 14.7464 14.6465L14.7628 14.6601L14.7799 14.6728L16.7874 16.1611C17.0388 16.3811 17.3426 16.4375 17.582 16.4375C17.8632 16.4375 18.111 16.3417 18.3145 16.2061L18.3331 16.1937L18.3509 16.1802L19.62 15.2202L18.0387 17.7113Z" stroke="white" stroke-width="1.5"/>
</svg>
