<svg width="32" height="32" viewBox="0 0 32 32" fill="none" xmlns="http://www.w3.org/2000/svg">
<path d="M21.4844 10.6953C20.043 9.21875 18.0742 8.375 15.9648 8.375C11.6758 8.375 8.16016 11.8906 8.16016 16.1797C8.16016 17.5859 8.54688 18.9219 9.21484 20.082L8.125 24.125L12.2383 23.0703C13.3984 23.668 14.6641 24.0195 15.9648 24.0195C20.2891 24.0195 23.875 20.5039 23.875 16.2148C23.875 14.1055 22.9609 12.1719 21.4844 10.6953ZM15.9648 22.6836C14.8047 22.6836 13.6797 22.3672 12.6602 21.7695L12.4492 21.6289L9.98828 22.2969L10.6562 19.9062L10.4805 19.6602C9.84766 18.6055 9.49609 17.4102 9.49609 16.1797C9.49609 12.6289 12.4141 9.71094 16 9.71094C17.7227 9.71094 19.3398 10.3789 20.5703 11.6094C21.8008 12.8398 22.5391 14.457 22.5391 16.2148C22.5391 19.7656 19.5508 22.6836 15.9648 22.6836ZM19.5508 17.832C19.3398 17.7266 18.3906 17.2695 18.2148 17.1992C18.0391 17.1289 17.8984 17.0938 17.7578 17.3047C17.6523 17.4805 17.2656 17.9375 17.1602 18.0781C17.0195 18.1836 16.9141 18.2188 16.7383 18.1133C15.5781 17.5508 14.8398 17.0938 14.0664 15.793C13.8555 15.4414 14.2773 15.4766 14.6289 14.7383C14.6992 14.5977 14.6641 14.4922 14.6289 14.3867C14.5938 14.2812 14.1719 13.332 14.0312 12.9453C13.8555 12.5586 13.7148 12.5938 13.5742 12.5938C13.4688 12.5938 13.3281 12.5938 13.2227 12.5938C13.082 12.5938 12.8711 12.6289 12.6953 12.8398C12.5195 13.0508 12.0273 13.5078 12.0273 14.457C12.0273 15.4414 12.6953 16.3555 12.8008 16.4961C12.9062 16.6016 14.1719 18.5703 16.1406 19.4141C17.3711 19.9766 17.8633 20.0117 18.4961 19.9062C18.8477 19.8711 19.6211 19.4492 19.7969 18.9922C19.9727 18.5352 19.9727 18.1484 19.9023 18.0781C19.8672 17.9727 19.7266 17.9375 19.5508 17.832Z" fill="white"/>
</svg>
