<svg width="269" height="56" viewBox="0 0 269 56" fill="none" xmlns="http://www.w3.org/2000/svg">
<path fill-rule="evenodd" clip-rule="evenodd" d="M134.48 35.4083L135.214 39.305H142.716L137.416 16.947H130.01L115.773 39.305H123.722L125.956 35.4083H134.48ZM129.053 29.9785L132.341 24.2613L133.426 29.9785H129.053Z" fill="#212239"/>
<path fill-rule="evenodd" clip-rule="evenodd" d="M113.602 38.3609L118.163 31.1979C118.044 30.5876 117.809 30.0428 117.456 29.5633C116.946 28.818 116.211 28.2325 115.254 27.8066C116.509 27.2743 117.488 26.5396 118.19 25.6027C118.893 24.6445 119.244 23.5373 119.244 22.281C119.244 20.5775 118.563 19.268 117.201 18.3524C115.839 17.4155 113.849 16.947 111.231 16.947H99.3882L94.9191 39.305H107.816C110.042 39.305 111.971 38.9903 113.602 38.3609ZM105.07 25.5389L105.741 22.2171H109.412C110.05 22.2171 110.54 22.3342 110.88 22.5685C111.221 22.8027 111.391 23.1434 111.391 23.5905C111.391 24.8894 110.561 25.5389 108.901 25.5389H105.07ZM110.082 33.5238C109.614 33.8645 108.997 34.0349 108.231 34.0349H103.378L104.081 30.5215H108.933C109.465 30.5215 109.901 30.6492 110.242 30.9048C110.604 31.1603 110.784 31.5223 110.784 31.9907C110.784 32.6508 110.55 33.1619 110.082 33.5238Z" fill="#212239"/>
<path d="M58.3727 39.816C56.4361 39.816 54.6165 39.6137 52.914 39.2091C51.2114 38.7833 49.8069 38.2297 48.7002 37.5483L51.6051 31.9907C54.01 33.3748 56.5212 34.0668 59.1388 34.0668C60.0965 34.0668 60.8307 33.9497 61.3415 33.7155C61.8522 33.4813 62.1076 33.1619 62.1076 32.7573C62.1076 32.374 61.8416 32.0653 61.3096 31.831C60.7988 31.5968 59.9795 31.3413 58.8515 31.0645C57.3618 30.6812 56.1275 30.2979 55.1485 29.9146C54.1696 29.5101 53.3077 28.9032 52.5628 28.0941C51.8392 27.2636 51.4775 26.1777 51.4775 24.8362C51.4775 23.154 51.9244 21.6848 52.8182 20.4285C53.7333 19.1509 55.0421 18.1714 56.7447 17.49C58.4472 16.7873 60.4583 16.436 62.778 16.436C64.4379 16.436 65.9809 16.6063 67.4067 16.947C68.8539 17.2664 70.0988 17.7349 71.1416 18.3524L68.4282 23.8461C67.5557 23.2924 66.5874 22.8772 65.5233 22.6004C64.4805 22.3236 63.4058 22.1852 62.2991 22.1852C61.2563 22.1852 60.4476 22.3342 59.873 22.6323C59.2984 22.9304 59.0111 23.2818 59.0111 23.6864C59.0111 24.0909 59.2665 24.4103 59.7773 24.6446C60.3093 24.8788 61.1712 25.1343 62.363 25.4111C63.8101 25.7518 65.0232 26.1138 66.0021 26.4971C67.0024 26.8803 67.8643 27.4766 68.5879 28.2857C69.3114 29.0948 69.6732 30.1595 69.6732 31.4797C69.6732 33.1406 69.2157 34.5992 68.3006 35.8555C67.3854 37.1118 66.0766 38.0912 64.3741 38.7939C62.6716 39.4753 60.6711 39.816 58.3727 39.816Z" fill="#212239"/>
<path d="M81.4042 39.816C79.4037 39.816 77.6693 39.486 76.2009 38.8259C74.7537 38.1445 73.6364 37.1863 72.849 35.9513C72.0829 34.7163 71.6998 33.2683 71.6998 31.6074C71.6998 30.9261 71.7849 30.1382 71.9552 29.2439L74.4132 16.947H81.9469L79.5208 29.1161C79.3931 29.7123 79.3292 30.2553 79.3292 30.7451C79.3292 31.7459 79.5846 32.4911 80.0954 32.9809C80.6061 33.4706 81.351 33.7155 82.33 33.7155C83.4366 33.7155 84.2985 33.3641 84.9157 32.6615C85.5328 31.9588 86.0117 30.777 86.3522 29.1161L88.7783 16.947H96.1843L93.6624 29.5633C92.9814 32.9489 91.6194 35.5041 89.5763 37.2289C87.5333 38.9536 84.8093 39.816 81.4042 39.816Z" fill="#212239"/>
<path d="M142.895 22.792H149.439L146.151 39.305H153.684L156.972 22.792H163.517L164.698 16.947H144.076L142.895 22.792Z" fill="#212239"/>
<path fill-rule="evenodd" clip-rule="evenodd" d="M175.519 39.816C173.242 39.816 171.241 39.4008 169.518 38.5703C167.815 37.7186 166.496 36.5368 165.559 35.025C164.644 33.5132 164.187 31.7778 164.187 29.8188C164.187 27.221 164.783 24.9107 165.974 22.8879C167.187 20.8437 168.858 19.2574 170.986 18.1288C173.136 17.0003 175.562 16.436 178.264 16.436C180.542 16.436 182.531 16.8619 184.234 17.7136C185.958 18.544 187.277 19.7152 188.192 21.227C189.129 22.7388 189.597 24.4742 189.597 26.4332C189.597 29.031 188.99 31.3519 187.777 33.3961C186.586 35.4189 184.915 36.9946 182.765 38.1232C180.637 39.2517 178.222 39.816 175.519 39.816ZM176.158 33.7155C177.349 33.7155 178.381 33.4067 179.254 32.7892C180.148 32.1717 180.829 31.3413 181.297 30.2979C181.765 29.2545 181.999 28.1154 181.999 26.8803C181.999 25.5602 181.606 24.5061 180.818 23.7183C180.052 22.9304 178.988 22.5365 177.626 22.5365C176.434 22.5365 175.391 22.8453 174.498 23.4628C173.625 24.0803 172.955 24.9107 172.486 25.9541C172.018 26.9975 171.784 28.1366 171.784 29.3717C171.784 30.6918 172.167 31.7459 172.933 32.5337C173.721 33.3216 174.796 33.7155 176.158 33.7155Z" fill="#212239"/>
<path d="M216.627 39.305L221.032 16.947H214.616L205.262 28.8287L200.41 16.947H194.281L189.812 39.305H196.675L198.686 29.2439L202.134 37.2927H205.454L211.743 29.1161L209.763 39.305H216.627Z" fill="#212239"/>
<path d="M224.208 16.9351H231.742L227.273 39.293H219.739L224.208 16.9351Z" fill="#212239"/>
<path d="M237.758 38.5703C239.503 39.4008 241.514 39.816 243.792 39.816C245.962 39.816 247.867 39.4753 249.506 38.7939C251.166 38.1125 252.645 36.9734 253.943 35.3764L249.506 31.1284C248.08 32.8531 246.42 33.7155 244.526 33.7155C243.142 33.7155 242.025 33.3216 241.174 32.5337C240.344 31.7246 239.929 30.6599 239.929 29.3397C239.929 28.0195 240.184 26.8484 240.695 25.8263C241.206 24.783 241.919 23.9738 242.834 23.3989C243.749 22.824 244.792 22.5365 245.962 22.5365C247.941 22.5365 249.431 23.4095 250.431 25.1556L255.858 20.9076C255.05 19.4809 253.815 18.3843 252.155 17.6178C250.495 16.8299 248.591 16.436 246.441 16.436C243.717 16.436 241.28 17.0109 239.131 18.1608C237.003 19.2893 235.332 20.865 234.119 22.8879C232.927 24.9107 232.331 27.221 232.331 29.8188C232.331 31.7778 232.8 33.5132 233.736 35.025C234.694 36.5368 236.034 37.7186 237.758 38.5703Z" fill="#212239"/>
<g clip-path="url(#clip0)">
<path d="M30.1119 44.8H30.1083C29.7004 44.8 29.3589 44.4587 29.3589 44.0511C29.3589 43.6638 29.6586 43.3045 30.1041 43.3022C31.3229 43.2813 32.5401 43.116 33.6933 42.8074L33.6967 42.8065L33.7002 42.8056C34.1098 42.7033 34.5071 42.9607 34.6051 43.3523C34.7074 43.7614 34.4501 44.1581 34.0586 44.2563C32.7771 44.5818 31.4482 44.7781 30.1154 44.7999L30.1119 44.8Z" fill="#212239"/>
<path d="M25.98 44.3754L25.9317 44.3642C24.6185 44.058 23.3766 43.5782 22.1858 42.9941L22.1737 42.9881L22.1619 42.9814C21.8315 42.7927 21.6574 42.3485 21.8741 41.9695C22.0614 41.642 22.5004 41.4681 22.8777 41.6768C23.946 42.2304 25.1006 42.6428 26.281 42.9325L26.2819 42.9327L26.2827 42.933C26.6746 43.0308 26.9323 43.4278 26.8299 43.8371L26.8228 43.8654L26.8119 43.8926C26.7106 44.1457 26.4352 44.3754 26.0933 44.3754H25.98Z" fill="#212239"/>
<path d="M36.9594 42.3794L36.9571 42.3754C36.7618 42.0339 36.8545 41.5663 37.2538 41.3585C37.9915 40.9387 38.6986 40.4585 39.3607 39.925C39.3056 39.7518 39.2758 39.5673 39.2758 39.3758C39.2758 38.3773 40.0859 37.5678 41.0852 37.5678C42.0845 37.5678 42.8946 38.3773 42.8946 39.3758C42.8946 40.3744 42.0845 41.1839 41.0852 41.1839C40.8287 41.1839 40.5847 41.1306 40.3636 41.0344C39.6098 41.6471 38.8057 42.1902 37.9683 42.6638L37.9586 42.6693L37.9487 42.6743L37.9428 42.6772C37.893 42.7023 37.7739 42.7622 37.6073 42.7622C37.3284 42.7622 37.0917 42.5997 36.9617 42.3833L36.9594 42.3794Z" fill="#212239"/>
<path d="M18.7019 40.5643C18.7676 40.628 18.8463 40.6829 18.9415 40.7195C19.039 40.757 19.1319 40.7668 19.2103 40.7668C19.4359 40.7668 19.614 40.6568 19.7238 40.5745L19.7483 40.5562L19.7699 40.5345C20.1025 40.2022 20.0049 39.736 19.7487 39.48L19.7335 39.4648L19.7168 39.4512C19.5025 39.276 19.305 39.0791 19.0901 38.8644C18.429 38.2038 17.8293 37.4806 17.3124 36.7368L17.3107 36.7344L17.3091 36.7321C17.08 36.4117 16.6253 36.2878 16.262 36.5471C15.9426 36.7751 15.8183 37.2269 16.0739 37.5892C16.6412 38.4174 17.295 39.201 18.0135 39.9189C18.2325 40.1378 18.4717 40.3551 18.7019 40.5643Z" fill="#212239"/>
<path d="M15.5358 33.3098C15.6772 33.69 15.4952 34.0687 15.1666 34.2324C15.023 34.3333 14.8804 34.3348 14.8342 34.3348C14.5336 34.3348 14.2372 34.1437 14.1307 33.8359C13.6734 32.5944 13.369 31.2895 13.2167 29.9643C13.1687 29.5685 13.4532 29.1773 13.8672 29.1255C14.2642 29.0759 14.6574 29.3606 14.7093 29.7753L14.7099 29.7802L14.7104 29.7851C14.8338 30.9974 15.1219 32.172 15.5358 33.3098Z" fill="#212239"/>
<path d="M13.9576 26.608L13.931 26.6047C13.516 26.5529 13.2311 26.1599 13.2808 25.7633L13.2813 25.7585L13.282 25.7538C13.478 24.4267 13.8263 23.1426 14.3269 21.9021C14.4645 21.5457 14.9026 21.2885 15.3144 21.4991C15.728 21.6742 15.8302 22.1314 15.7049 22.4653L15.7028 22.4709L15.7005 22.4765C15.2509 23.5792 14.9414 24.7681 14.7541 25.9629C14.7317 26.3861 14.3562 26.608 14.0269 26.608H13.9576Z" fill="#212239"/>
<path d="M16.5438 19.272L16.5382 19.268C16.1746 19.0086 16.1454 18.5419 16.3743 18.2217L16.3758 18.2195L16.3774 18.2174C16.8583 17.5621 17.4038 16.9299 17.9922 16.342C18.3429 15.9915 18.7349 15.6436 19.0953 15.3259L19.0998 15.3219L19.1045 15.318C19.4184 15.0566 19.9019 15.1092 20.1574 15.4155C20.4189 15.7292 20.3663 16.2123 20.0597 16.4676L20.0588 16.4684L20.0578 16.4692C19.7032 16.761 19.3579 17.0661 19.0573 17.3866L19.0525 17.3916L19.0476 17.3965C18.5107 17.9331 18.0158 18.5102 17.5836 19.1065L17.5815 19.1094L17.5793 19.1123C17.4342 19.3056 17.2216 19.4119 16.9798 19.4119C16.8151 19.4119 16.6696 19.3558 16.5496 19.2759L16.5438 19.272Z" fill="#212239"/>
<path d="M37.6828 15.1686C38.7163 15.8094 39.6655 16.5522 40.5317 17.4178C40.7048 17.5907 40.9187 17.6288 41.0701 17.6288C41.3068 17.6288 41.4735 17.5033 41.5537 17.443L41.5867 17.4182L41.6084 17.3965C41.9041 17.1011 41.9041 16.6374 41.6084 16.342L41.6066 16.3402L41.6048 16.3385C40.6488 15.4049 39.6041 14.5781 38.4704 13.881L38.4645 13.8774L38.4584 13.8739C38.1349 13.6892 37.6449 13.7548 37.4245 14.1402C37.241 14.4611 37.3043 14.9461 37.6828 15.1686Z" fill="#212239"/>
<path d="M26.4428 11.7903C25.1428 12.0721 23.8595 12.4847 22.6589 13.0518L22.6438 13.059L22.6293 13.0672C22.3475 13.2281 22.0849 13.6523 22.3142 14.0684C22.4492 14.3295 22.6984 14.4871 22.9917 14.4871C23.0732 14.4871 23.1474 14.4691 23.1996 14.4517C23.2249 14.4433 23.2789 14.4244 23.3371 14.3875C24.4191 13.881 25.5644 13.5142 26.7541 13.2682L26.7628 13.2664L26.7714 13.2643C27.1192 13.1774 27.4523 12.8102 27.3397 12.3601C27.2533 12.0146 26.8896 11.6836 26.4428 11.7903Z" fill="#212239"/>
<path d="M34.1404 13.5834C33.0029 13.2429 31.8047 13.0414 30.6257 12.9798C30.2205 12.9721 29.8758 12.624 29.9116 12.1853C29.9253 11.7829 30.2752 11.4433 30.7138 11.4832C32.0407 11.5493 33.364 11.7882 34.6202 12.1556C35.0713 12.2745 35.22 12.7431 35.1362 13.0784L35.1247 13.1243L35.1035 13.1665C34.9985 13.3763 34.7507 13.638 34.3995 13.638L34.3978 13.638C34.3858 13.6381 34.3388 13.6382 34.2862 13.6295C34.2588 13.6249 34.2033 13.6141 34.1404 13.5834Z" fill="#212239"/>
<path d="M32.2104 28.1185C32.2104 29.4618 31.1206 30.5508 29.7763 30.5508C28.4319 30.5508 27.3422 29.4618 27.3422 28.1185C27.3422 26.7752 28.4319 25.6863 29.7763 25.6863C31.1206 25.6863 32.2104 26.7752 32.2104 28.1185Z" fill="#212239"/>
</g>
<defs>
<clipPath id="clip0">
<rect width="33.3448" height="33.32" fill="white" transform="translate(13.1138 11.48)"/>
</clipPath>
</defs>
</svg>
